<svg xmlns="http://www.w3.org/2000/svg" width="1200" height="700" viewBox="0 0 1200 700" role="img" aria-label="NACHA Validator results panel preview">
  <rect width="1200" height="700" fill="#1e1e1e"/>
  <rect x="40" y="34" width="1120" height="632" rx="14" fill="#252526" stroke="#454545"/>
  <text x="76" y="88" fill="#ffffff" font-family="Arial, sans-serif" font-size="31" font-weight="700">NACHA Validation</text>
  <text x="76" y="118" fill="#a6a6a6" font-family="Arial, sans-serif" font-size="17">payroll.ach</text>
  <rect x="76" y="148" width="1048" height="99" rx="10" fill="#173b25" stroke="#3d8154"/>
  <circle cx="112" cy="196" r="20" fill="#2ea043"/><text x="101" y="204" fill="white" font-family="Arial" font-size="24" font-weight="700">✓</text>
  <text x="150" y="190" fill="#ffffff" font-family="Arial" font-size="23" font-weight="700">VALID NACHA FILE</text>
  <text x="150" y="216" fill="#c7d7cb" font-family="Arial" font-size="16">Record length, structure, fields, and control totals reconciled.</text>
  <text x="76" y="290" fill="#ffffff" font-family="Arial" font-size="23" font-weight="700">File Summary</text>
  <g font-family="Arial, sans-serif"><g fill="#303030"><rect x="76" y="310" width="112" height="92" rx="8"/><rect x="200" y="310" width="112" height="92" rx="8"/><rect x="324" y="310" width="112" height="92" rx="8"/><rect x="448" y="310" width="112" height="92" rx="8"/><rect x="572" y="310" width="150" height="92" rx="8"/><rect x="734" y="310" width="150" height="92" rx="8"/><rect x="896" y="310" width="112" height="92" rx="8"/><rect x="1020" y="310" width="104" height="92" rx="8"/></g><g fill="#ffffff" font-size="24" font-weight="700"><text x="94" y="350">10</text><text x="218" y="350">1</text><text x="342" y="350">2</text><text x="466" y="350">0</text><text x="590" y="350">$0.00</text><text x="752" y="350">$3,950.75</text><text x="914" y="350">$3,950.75</text><text x="1037" y="350">$3.9k</text></g><g fill="#a6a6a6" font-size="14"><text x="94" y="380">Records</text><text x="218" y="380">Batches</text><text x="342" y="380">Entries</text><text x="466" y="380">Addenda</text><text x="590" y="380">Debit</text><text x="752" y="380">Credit</text><text x="914" y="380">Gross</text><text x="1037" y="380">Net</text></g></g>
  <text x="76" y="451" fill="#ffffff" font-family="Arial" font-size="23" font-weight="700">File Control Reconciliation</text>
  <rect x="76" y="470" width="1048" height="145" rx="8" fill="#202020" stroke="#454545"/>
  <g fill="#a6a6a6" font-family="Arial" font-size="14"><text x="98" y="500">CHECK</text><text x="390" y="500">CALCULATED</text><text x="635" y="500">DECLARED</text><text x="923" y="500">STATUS</text></g>
  <g fill="#ffffff" font-family="Arial" font-size="16"><text x="98" y="536">Batch Count</text><text x="390" y="536">1</text><text x="635" y="536">1</text><text x="98" y="576">Total Credit</text><text x="390" y="576">$3,950.75</text><text x="635" y="576">$3,950.75</text></g>
  <g fill="#173b25" stroke="#3d8154"><rect x="923" y="518" width="58" height="24" rx="12"/><rect x="923" y="558" width="58" height="24" rx="12"/></g><g fill="#74d88b" font-family="Arial" font-size="12" font-weight="700"><text x="935" y="535">PASS</text><text x="935" y="575">PASS</text></g>
</svg>
